<?xml version="1.0" encoding="UTF-8" standalone="no"?>
<!-- Created with Inkscape (http://www.inkscape.org/) -->

<svg
   version="1.1"
   id="svg1096"
   width="47.491528"
   height="47.389835"
   viewBox="0 0 47.491528 47.389835"
   sodipodi:docname="365tickets_landmark_icon_white.svg"
   xml:space="preserve"
   inkscape:export-filename="365tickets_bus_tour_icon.svg"
   inkscape:export-xdpi="96"
   inkscape:export-ydpi="96"
   inkscape:version="1.2.2 (b0a8486, 2022-12-01)"
   xmlns:inkscape="http://www.inkscape.org/namespaces/inkscape"
   xmlns:sodipodi="http://sodipodi.sourceforge.net/DTD/sodipodi-0.dtd"
   xmlns="http://www.w3.org/2000/svg"
   xmlns:svg="http://www.w3.org/2000/svg"><sodipodi:namedview
     id="namedview183"
     pagecolor="#ffffff"
     bordercolor="#000000"
     borderopacity="0.25"
     inkscape:showpageshadow="2"
     inkscape:pageopacity="0.0"
     inkscape:pagecheckerboard="0"
     inkscape:deskcolor="#d1d1d1"
     showgrid="false"
     inkscape:zoom="7.0427424"
     inkscape:cx="-7.5964726"
     inkscape:cy="27.049122"
     inkscape:window-width="1719"
     inkscape:window-height="919"
     inkscape:window-x="0"
     inkscape:window-y="77"
     inkscape:window-maximized="0"
     inkscape:current-layer="svg1096" /><defs
     id="defs1100" /><path
     style="fill:#ffffff;stroke:none;stroke-width:0.310534"
     d="M 21.352636,0.61389141 C 17.119157,1.2201103 12.952568,2.6249132 9.5523447,5.2996821 -7.9605918,19.076274 3.0255104,49.794947 26.010646,46.972193 30.25285,46.451117 34.361215,45.044398 37.810937,42.477214 55.990217,28.949236 44.521266,-2.7037723 21.352636,0.61389141 M 21.66317,1.8119414 C 44.166946,-0.95182651 54.534123,30.093926 35.947733,42.233755 32.959154,44.186082 29.539336,45.296552 26.010646,45.730057 3.5053382,48.49381 -6.8658664,17.451684 11.726083,5.3080976 14.714786,3.355963 18.134479,2.2453071 21.66317,1.8119414 M 20.1105,33.086977 c -1.956675,0.02329 -2.461075,0.527597 -2.484272,2.484272 -1.910156,0.02267 -4.083056,2.862812 -1.50668,3.627658 3.524002,1.046189 8.693586,0.09875 12.37537,0.09875 0.969331,0 2.726053,0.324819 3.539155,-0.319228 2.039277,-1.615088 -0.405868,-3.388547 -1.986486,-3.407179 -0.0232,-1.956675 -0.527597,-2.460982 -2.484271,-2.484272 -0.05313,-6.416067 -0.929118,-12.830581 -0.931602,-19.253107 -6.52e-4,-1.703186 -0.315161,-5.2148591 -2.794806,-5.2148591 -2.479645,0 -2.794154,3.5116731 -2.794806,5.2148591 -0.0025,6.422526 -0.878501,12.837071 -0.931602,19.253107 m 6.21068,0 h -4.968544 c 0,-5.655818 0.06385,-11.784578 0.799811,-17.389903 0.168869,-1.28617 -0.422295,-5.214859 1.684461,-5.214859 2.106756,0 1.515592,3.928689 1.68446,5.214859 0.735997,5.605325 0.799812,11.734085 0.799812,17.389903 m 2.484272,1.242136 v 1.242136 h -9.937088 v -1.242136 h 9.937088 m 2.484271,2.484272 v 1.242136 H 16.384092 v -1.242136 z"
     id="path68170" /></svg>
