<?xml version="1.0" encoding="UTF-8" standalone="no"?>
<!-- Created with Inkscape (http://www.inkscape.org/) -->

<svg
   version="1.1"
   id="svg1096"
   width="47.491528"
   height="47.389835"
   viewBox="0 0 47.491528 47.389835"
   sodipodi:docname="365tickets_river_cruise_icon_white.svg"
   xml:space="preserve"
   inkscape:export-filename="365tickets_bus_tour_icon.svg"
   inkscape:export-xdpi="96"
   inkscape:export-ydpi="96"
   inkscape:version="1.2.2 (b0a8486, 2022-12-01)"
   xmlns:inkscape="http://www.inkscape.org/namespaces/inkscape"
   xmlns:sodipodi="http://sodipodi.sourceforge.net/DTD/sodipodi-0.dtd"
   xmlns="http://www.w3.org/2000/svg"
   xmlns:svg="http://www.w3.org/2000/svg"><sodipodi:namedview
     id="namedview183"
     pagecolor="#ffffff"
     bordercolor="#000000"
     borderopacity="0.25"
     inkscape:showpageshadow="2"
     inkscape:pageopacity="0.0"
     inkscape:pagecheckerboard="0"
     inkscape:deskcolor="#d1d1d1"
     showgrid="false"
     inkscape:zoom="7.0427424"
     inkscape:cx="-7.5964726"
     inkscape:cy="27.049122"
     inkscape:window-width="1719"
     inkscape:window-height="919"
     inkscape:window-x="174"
     inkscape:window-y="131"
     inkscape:window-maximized="0"
     inkscape:current-layer="svg1096" /><defs
     id="defs1100" /><path
     style="fill:#ffffff;stroke:none;stroke-width:0.31432"
     d="M 21.197791,0.20193301 C 16.912693,0.81554364 12.695299,2.2374757 9.253616,4.9448587 -8.4728601,18.889432 2.6471984,49.982666 25.912597,47.125493 30.206528,46.598064 34.364987,45.174192 37.856772,42.575706 56.257717,28.882777 44.648922,-3.1561838 21.197791,0.20193301 M 21.512112,1.4145912 C 44.290282,-1.3828761 54.783869,30.041425 35.97085,42.329278 32.94583,44.305411 29.484314,45.429421 25.912597,45.868212 3.1328769,48.665663 -7.3647864,17.245033 11.453859,4.9533768 14.479004,2.9774393 17.940395,1.853241 21.512112,1.4145912 M 9.253616,29.299126 H 7.9963344 c 0.8370667,2.380349 4.9461146,0.416852 6.9150486,0.895436 3.832006,0.931363 8.37513,-0.344904 12.258496,-0.344904 3.966126,0 8.293029,1.126022 12.258495,0.392429 l -0.31432,-1.257281 h -6.915049 c 2.449185,-2.502462 4.083022,-5.46094 5.791039,-8.486651 0.482796,-0.855203 1.64201,-2.320093 1.082205,-3.35735 -0.84615,-1.567988 -4.00067,0.118436 -5.301642,0.101619 -2.886184,-0.03731 -5.888572,-1.602814 -8.800971,-1.948503 -1.844746,-0.218956 -3.829051,0.325636 -5.657767,0.574326 -2.350991,0.319727 -6.346852,-3.298258 -8.290924,-1.647762 -1.5844574,1.345166 2.984221,3.783946 3.103411,5.153786 0.348173,4.001173 -4.6816763,5.846422 -4.87074,9.924855 m 6.286408,-12.887136 -0.31432,1.257281 -2.828884,-2.514563 3.143204,1.257282 m 15.4017,1.571602 v 0.31432 l -16.030341,4.086165 c 0.345564,-7.544443 10.951426,-6.585641 16.030341,-4.400485 m 6.915048,-0.314321 c -0.948619,3.293261 -4.337935,10.14642 -7.85801,11.229191 -1.08255,0.332991 -2.058547,-0.401639 -3.143204,-0.284963 -5.380693,0.578821 -11.11396,-0.552764 -16.34466,0.685627 0.166967,-3.211726 2.744677,-5.246353 5.657767,-6.149364 7.047786,-2.184778 14.462353,-3.989072 21.688107,-5.480491 M 26.32684,22.725555 c -1.181247,0.681981 -0.123811,2.513589 1.057437,1.831608 1.181216,-0.681981 0.123811,-2.513589 -1.057437,-1.831608 m -3.771845,0.628641 c -1.181247,0.681981 -0.123811,2.513589 1.057437,1.831608 1.181216,-0.681981 0.123811,-2.513589 -1.057437,-1.831608 m -3.771845,0.628641 c -1.181216,0.681981 -0.12381,2.513589 1.057437,1.831608 1.181216,-0.681981 0.123811,-2.513589 -1.057437,-1.831608 M 7.9963344,31.813689 c 0.8370667,2.380349 4.9461146,0.416789 6.9150486,0.895499 3.832006,0.931332 8.37513,-0.344809 12.258496,-0.344809 3.966126,0 8.293029,1.125895 12.258495,0.392272 L 39.114054,31.499369 27.169879,31.00268 23.712354,31.754912 13.339781,31.002429 Z"
     id="path68589" /></svg>
