<?xml version="1.0" encoding="UTF-8" standalone="no"?>
<!-- Created with Inkscape (http://www.inkscape.org/) -->

<svg
   version="1.1"
   id="svg1096"
   width="47.491528"
   height="47.389835"
   viewBox="0 0 47.491528 47.389835"
   sodipodi:docname="365tickets_water_park_icon_white.svg"
   xml:space="preserve"
   inkscape:export-filename="365tickets_bus_tour_icon.svg"
   inkscape:export-xdpi="96"
   inkscape:export-ydpi="96"
   inkscape:version="1.2.2 (b0a8486, 2022-12-01)"
   xmlns:inkscape="http://www.inkscape.org/namespaces/inkscape"
   xmlns:sodipodi="http://sodipodi.sourceforge.net/DTD/sodipodi-0.dtd"
   xmlns="http://www.w3.org/2000/svg"
   xmlns:svg="http://www.w3.org/2000/svg"><sodipodi:namedview
     id="namedview183"
     pagecolor="#ffffff"
     bordercolor="#000000"
     borderopacity="0.25"
     inkscape:showpageshadow="2"
     inkscape:pageopacity="0.0"
     inkscape:pagecheckerboard="0"
     inkscape:deskcolor="#d1d1d1"
     showgrid="false"
     inkscape:zoom="7.0427424"
     inkscape:cx="9.0873692"
     inkscape:cy="14.270009"
     inkscape:window-width="1719"
     inkscape:window-height="919"
     inkscape:window-x="78"
     inkscape:window-y="144"
     inkscape:window-maximized="0"
     inkscape:current-layer="svg1096" /><defs
     id="defs1100" /><path
     style="fill:#ffffff;stroke:none;stroke-width:0.309587"
     d="M 21.16466,0.76786603 C 16.944086,1.3722369 12.790198,2.7727576 9.4003398,5.439373 -8.059212,19.173969 2.8934013,49.799003 25.808471,46.984854 30.037744,46.465366 34.133585,45.062936 37.572791,42.503577 55.696656,29.016836 44.262665,-2.5396844 21.16466,0.76786603 M 21.474248,1.962264 C 43.909426,-0.79307911 54.245001,30.158037 35.715267,42.26086 32.735798,44.207236 29.326405,45.31432 25.808471,45.746504 3.3717664,48.501832 -6.9678236,17.554332 11.567451,5.4477629 14.547044,3.5015789 17.956313,2.3943087 21.474248,1.962264 m 9.597208,6.4127095 V 9.613323 c 6.273789,1.49088 6.036954,6.825659 0.619175,9.287621 v 0.619175 c 3.477286,0.72236 5.287753,-2.702264 5.88216,-5.572573 h 0.309588 c -0.01238,4.509729 -2.32624,6.526783 -6.191748,8.35886 v 0.619174 c 4.229273,0.878516 7.8855,-4.551337 7.336602,-8.358859 -0.561901,-3.89786 -4.346917,-5.8965869 -7.955777,-6.1917475 M 16.830437,22.92558 c -1.990059,1.635334 -7.0607904,2.493386 -8.338086,4.492113 -2.4229237,3.791455 4.665915,7.311835 7.409324,7.25549 C 20.78814,34.572567 26.509253,29.214507 29.051987,25.402279 36.550224,14.16045 18.253239,5.4478867 10.07685,12.326516 4.2907239,17.194251 11.836204,22.82193 16.830437,22.92558 m 12.383495,-5.262985 h 0.309588 c 1.544933,6.489137 -5.532946,12.612497 -10.835559,15.069475 -4.233886,1.961855 -8.055742,-0.296585 -9.2876212,-4.543504 2.4346882,-1.296614 5.0433952,-2.169712 7.4300972,-3.592514 1.511096,-0.900807 2.984144,-1.916315 4.329672,-3.052377 0.99811,-0.842728 1.844955,-1.856162 2.554344,-2.952318 3.895352,-6.019153 -6.697087,-8.114719 -10.598817,-6.054879 -2.721737,1.436888 -2.954299,4.277816 -0.305067,5.905565 0.85864,0.527568 1.804801,0.801429 2.781518,1.012629 1.743751,0.377078 3.5123,0.359617 5.262986,0.684622 C 18.22197,23.53813 10.872056,21.731378 9.6024385,17.662595 7.2432588,10.10213 23.93717,9.1885381 25.630985,15.185896 c 1.465091,5.187446 -5.966678,9.540523 -9.72931,11.303283 -1.35429,0.634468 -5.834917,1.310266 -4.62279,3.545673 2.209247,4.074263 6.083454,2.047704 8.496935,-0.101266 3.964452,-3.529946 9.159855,-6.196082 9.438112,-12.270991 M 14.663325,13.120793 c 2.247419,-0.406457 5.801018,-0.378966 7.706002,1.044362 1.566574,1.170519 1.438869,4.040951 -0.642828,4.637372 -2.273578,0.651371 -6.659688,-0.134269 -8.592969,-1.447848 -2.274414,-1.545398 -0.630258,-3.843217 1.529795,-4.233886 m 12.383495,1.445928 c 4.191318,5.498582 -3.569666,11.358637 -7.402389,14.211392 -2.32853,1.733194 -5.504587,4.309983 -7.457805,0.339215 5.319888,-2.369272 11.337307,-4.565516 14.044648,-10.216384 0.714064,-1.490384 0.456239,-2.844179 0.815546,-4.334223 M 26.427646,30.04609 v 0.309587 c 2.971884,2.091263 4.619415,0.643416 7.739684,0.843255 1.903034,0.121853 3.081323,0.981144 4.953398,0.08551 V 30.665265 L 38.811141,30.355677 33.857743,29.84136 30.452282,30.582388 26.427646,30.04609 m -5.262986,3.715049 -0.309587,1.238349 13.00267,-0.09257 5.262985,0.09257 v -0.619175 l -0.309587,-0.309587 c -1.857834,0.329401 -3.192156,-0.566855 -4.953398,-0.514225 -4.051446,0.121049 -8.68049,1.332155 -12.693083,0.204638 M 8.1619903,34.689901 v 0.619175 h 3.7150487 l -0.309588,-1.23835 -3.4054607,0.619175 m 0.3095874,3.405461 c 0.8222641,2.338313 4.5955773,0.313922 6.5013353,0.798426 2.105503,0.535586 3.564589,-0.393486 5.572572,-0.264697 4.424499,0.283272 8.583682,0.540849 13.00267,0.01796 2.069592,-0.244884 3.498028,1.060027 5.572573,0.06749 V 38.095362 L 38.811141,37.785775 27.04682,37.27155 16.830437,38.012393 13.424976,37.27155 Z"
     id="path69088" /></svg>
