<?xml version="1.0" encoding="UTF-8" standalone="no"?>
<!-- Created with Inkscape (http://www.inkscape.org/) -->

<svg
   version="1.1"
   id="svg1096"
   width="47.491528"
   height="47.389835"
   viewBox="0 0 47.491528 47.389835"
   sodipodi:docname="365tickets_theatre_icon.svg"
   xml:space="preserve"
   inkscape:export-filename="365tickets_bus_tour_icon.svg"
   inkscape:export-xdpi="96"
   inkscape:export-ydpi="96"
   inkscape:version="1.2.2 (b0a8486, 2022-12-01)"
   xmlns:inkscape="http://www.inkscape.org/namespaces/inkscape"
   xmlns:sodipodi="http://sodipodi.sourceforge.net/DTD/sodipodi-0.dtd"
   xmlns="http://www.w3.org/2000/svg"
   xmlns:svg="http://www.w3.org/2000/svg"><sodipodi:namedview
     id="namedview183"
     pagecolor="#ffffff"
     bordercolor="#000000"
     borderopacity="0.25"
     inkscape:showpageshadow="2"
     inkscape:pageopacity="0.0"
     inkscape:pagecheckerboard="0"
     inkscape:deskcolor="#d1d1d1"
     showgrid="false"
     inkscape:zoom="7.0427424"
     inkscape:cx="9.0873692"
     inkscape:cy="14.270009"
     inkscape:window-width="1719"
     inkscape:window-height="919"
     inkscape:window-x="174"
     inkscape:window-y="153"
     inkscape:window-maximized="0"
     inkscape:current-layer="svg1096" /><defs
     id="defs1100" /><path
     style="fill:#6d6d6d;stroke:none;stroke-width:0.312427"
     d="M 21.212936,0.48510244 C 16.953648,1.0950172 12.761656,2.5083847 9.340703,5.1994607 -8.2790035,19.060043 2.774077,49.965997 25.899344,47.126034 30.167412,46.601781 34.300824,45.186486 37.771578,42.60365 56.06169,28.993197 44.522817,-2.8527878 21.212936,0.48510244 m 0.312428,1.20535406 c 22.640973,-2.7806176 33.071355,28.4544095 14.37165,40.6682515 -3.006799,1.964229 -6.447466,3.081469 -9.99767,3.517617 C 3.2568301,48.656927 -7.1776039,17.425549 11.527693,5.2079275 14.534618,3.2438914 17.97516,2.1264643 21.525364,1.6904565 M 27.46148,18.472086 C 27.356286,16.022251 27.13615,11.039287 25.179762,9.3032231 21.26808,5.8320633 11.455304,9.7501815 9.0188717,13.477844 c -3.0445093,4.657977 4.4378413,12.95973 8.1322613,15.09317 3.741347,2.160497 1.082154,9.824555 6.249044,10.762461 5.247964,0.952278 10.588845,-3.560733 13.429433,-7.427019 0.887918,-1.208781 2.307274,-2.803003 2.376008,-4.373981 0.213701,-4.875083 -7.67821,-8.874588 -11.744138,-9.060389 m -1.249709,-0.312427 c -2.614515,0.354136 -2.726021,1.730847 -4.572153,3.128115 -2.002939,1.515991 -4.047869,1.315787 -5.11309,4.057711 l 0.937282,0.312427 c 0.832462,-1.590348 1.976196,-2.490732 3.749126,-2.811845 L 19.6508,28.157329 C 17.452594,27.760641 15.859059,26.296732 14.352066,24.72038 12.584947,22.871905 8.760307,17.839015 9.6017671,15.035387 10.823014,10.966492 20.397376,7.6273012 23.954641,10.064514 c 1.977414,1.35481 2.212078,5.912685 2.25713,8.095145 M 19.6508,15.972669 c 0.939656,1.949577 2.971433,2.389724 4.061554,0.312427 L 19.6508,15.972669 m -5.936116,4.061553 c 2.389599,-0.02165 3.10262,-0.734672 3.124272,-3.124272 l -3.124272,3.124272 m 11.260875,-0.489386 c 3.92971,-1.138703 12.699479,3.262584 12.916303,7.675212 0.212763,4.330647 -7.125527,9.594327 -10.742809,10.572849 -8.071806,2.183553 -7.068197,-8.547384 -5.294641,-13.384694 0.586832,-1.600502 1.27389,-4.328085 3.121147,-4.863367 m -0.950778,4.863367 4.061554,2.18699 c -0.475952,-2.337549 -1.994192,-2.442337 -4.061554,-2.18699 m 6.248544,3.124272 3.749126,2.811845 c -0.502695,-2.090263 -1.500588,-3.292858 -3.749126,-2.811845 m -7.185826,0 c -1.180693,3.152703 -0.549809,8.765145 4.061554,8.019069 1.015295,-0.164024 5.121619,-1.63337 4.319025,-3.185508 -0.629416,-1.217529 -3.801333,-1.568197 -4.943879,-2.455896 -1.167197,-0.90682 -2.010719,-1.892903 -3.4367,-2.377665 m 0.937282,2.18699 5.62369,2.811845 c -1.940267,3.708823 -7.216413,0.992269 -5.62369,-2.811845 z"
     id="path68854" /></svg>
