<?xml version="1.0" encoding="UTF-8" standalone="no"?>
<!-- Created with Inkscape (http://www.inkscape.org/) -->

<svg
   version="1.1"
   id="svg1096"
   width="48"
   height="48"
   viewBox="0 0 48 48"
   xmlns:xlink="http://www.w3.org/1999/xlink"
   xmlns="http://www.w3.org/2000/svg"
   xmlns:svg="http://www.w3.org/2000/svg">
  <defs
     id="defs1100" />
  <gid="g1102">
    <path
       style="display:inline;fill:#6c6c6c;stroke:none;stroke-width:0.32"
       d="M 21.44,0.13703616 C 17.077472,0.7617344 12.783872,2.20936 9.28,4.965664 -8.766784,19.162208 2.554208,50.81728 26.24,47.90848 30.61152,47.37152 34.84512,45.92192 38.4,43.27648 57.13344,29.336128 45.31488,-3.28176 21.44,0.13703616 M 21.76,1.3716064 C 44.94976,-1.4764096 55.63296,30.515712 36.48,43.0256 33.40032,45.03744 29.876256,46.18176 26.24,46.62848 3.0486624,49.47648 -7.638688,17.488096 11.52,4.974336 14.599808,2.9626944 18.123744,1.8181824 21.76,1.3716064 M 10.88,20.16 c -3.60896,0.403072 -3.87376,5.02608 0,5.12 l 1.28,4.16 C 10.77712,30.165696 9.665088,32.71072 11.338752,33.86272 12.229792,34.47584 13.695616,34.24 14.72,34.24 L 11.2,40 l 5.76,-0.32 1.6,-4.48 c 1.785824,0.47168 1.808576,2.06464 3.247168,2.68704 3.811616,1.64864 4.766208,-1.92992 7.632832,-2.68704 1.183296,4.02272 3.08416,5.744 7.36,4.48 v -0.64 l -3.52,-4.8 c 1.01408,0 2.53184,0.26272 3.41824,-0.32896 C 38.40992,32.76896 37.22464,30.138336 35.84,29.44 l 1.28,-4.16 c 3.8608,-0.0936 3.6352,-4.845152 0,-5.12 L 36.48,17.28 C 37.84128,16.397376 37.77792,14.022016 36.43264,13.037536 35.3152,12.219904 33.86144,12.691552 32.64,12.180992 30.198624,11.160448 28.01616,9.171136 25.587392,8.236288 21.968672,6.843424 18.297792,11.281216 15.04,12.300736 13.569888,12.7608 11.850688,12.170912 10.93728,13.794816 9.984416,15.488864 11.15984,18.212608 10.88,20.16 m 13.76,-10.88 1.28,1.28 v 1.28 h -3.84 v -1.28 l 1.28,-1.28 h 1.28 m -3.84,1.6 c 0.648128,3.13456 5.751872,3.13456 6.4,0 l 4.48,2.24 c -1.966784,5.396416 3.53952,2.932704 4.16,7.04 -2.40864,1.13664 -3.26752,4.60976 0,5.12 -0.50048,3.338848 -2.19424,3.294912 -4.48,5.12 H 31.04 C 29.877344,28.799616 28.477664,26.85024 27.850624,24.96 27.42016,23.662336 27.994048,22.368224 27.245184,21.121472 25.7128,18.570304 22.713536,18.397024 20.964448,20.80592 19.98208,22.15888 20.639584,23.521952 20.123712,24.96 19.441568,26.861504 18.069504,28.723264 16.96,30.4 c -2.583296,-1.532032 -4.30128,-1.792704 -4.8,-5.12 3.207168,-0.663136 2.337632,-3.87728 0,-5.12 0.619136,-4.097984 6.110112,-1.689344 4.16,-7.04 l 4.48,-2.24 m -6.4,2.88 1.28,1.28 v 1.28 h -3.84 v -1.28 l 1.28,-1.28 h 1.28 m 20.48,0 1.28,1.28 v 1.28 h -3.84 v -1.28 l 1.28,-1.28 h 1.28 m -11.515072,6.543712 c 3.14704,-0.787072 4.396192,4.050752 1.270144,4.832576 -3.14704,0.787072 -4.396192,-4.050752 -1.270144,-4.832576 M 11.84,21.44 13.12,22.72 V 24 H 9.28 v -1.28 l 1.28,-1.28 h 1.28 m 25.6,0 1.28,1.28 V 24 h -3.84 v -1.28 l 1.28,-1.28 h 1.28 M 13.76,38.72 21.12,25.6 c 1.65792,0.976672 0.282528,2.550816 -0.454816,3.84 -1.494976,2.61376 -3.57856,9.02336 -6.905184,9.28 M 26.88,25.6 34.24,38.72 C 30.956352,38.46656 28.768544,32.04128 27.289888,29.44 26.548384,28.13552 25.204096,26.58464 26.88,25.6 m -2.56,0.96 4.16,7.68 -1.6,0.32 c -2.475808,-3.123296 -4.471264,-0.2272 -7.36,-0.32 0.687264,-2.38112 2.552672,-6.512544 4.8,-7.68 m -9.92,3.84 1.28,1.28 v 1.28 h -3.84 v -1.28 l 1.28,-1.28 h 1.28 m 20.48,0 1.28,1.28 v 1.28 H 32.32 V 31.68 L 33.6,30.4 h 1.28 m -10.24,3.84 1.28,1.28 v 1.28 h -3.84 v -1.28 l 1.28,-1.28 z"
       id="path3509" />
  </g>
</svg>
