<?xml version="1.0" encoding="UTF-8" standalone="no"?>
<!-- Created with Inkscape (http://www.inkscape.org/) -->

<svg
   version="1.1"
   id="svg1096"
   width="47.491524"
   height="47.69492"
   viewBox="0 0 47.491524 47.69492"
   sodipodi:docname="365tickets_bus_tour_icon.svg"
   xml:space="preserve"
   inkscape:export-filename="365tickets_bus_tour_icon.svg"
   inkscape:export-xdpi="96"
   inkscape:export-ydpi="96"
   inkscape:version="1.2.2 (b0a8486, 2022-12-01)"
   xmlns:inkscape="http://www.inkscape.org/namespaces/inkscape"
   xmlns:sodipodi="http://sodipodi.sourceforge.net/DTD/sodipodi-0.dtd"
   xmlns="http://www.w3.org/2000/svg"
   xmlns:svg="http://www.w3.org/2000/svg"><sodipodi:namedview
     id="namedview183"
     pagecolor="#ffffff"
     bordercolor="#000000"
     borderopacity="0.25"
     inkscape:showpageshadow="2"
     inkscape:pageopacity="0.0"
     inkscape:pagecheckerboard="0"
     inkscape:deskcolor="#d1d1d1"
     showgrid="false"
     inkscape:zoom="6.9976929"
     inkscape:cx="16.362536"
     inkscape:cy="29.795534"
     inkscape:window-width="1704"
     inkscape:window-height="977"
     inkscape:window-x="0"
     inkscape:window-y="77"
     inkscape:window-maximized="0"
     inkscape:current-layer="svg1096" /><defs
     id="defs1100" /><path
     style="fill:#6a6a6a;stroke:none;stroke-width:0.313331"
     d="M 21.168312,0.51140139 C 16.919322,1.1198441 12.675126,2.5542585 9.2617278,5.2393999 -8.402159,19.134728 2.6862136,50.134207 25.868279,47.287281 30.130867,46.763704 34.305347,45.332721 37.774862,42.751812 56.120401,29.105896 44.528715,-2.8337025 21.168312,0.51140139 M 21.481643,1.720243 C 44.392729,-1.0935491 54.37076,30.089725 35.894875,42.513994 32.922616,44.512733 29.403531,45.599679 25.868279,46.033956 3.1550103,48.82323 -7.303714,17.500455 11.455046,5.2478911 14.47067,3.2781725 17.921167,2.1575123 21.481643,1.720243 m -11.2787,9.856154 C 8.2199017,12.344654 8.0115052,14.19619 8.0084032,16.043779 v 11.593252 c 0,1.397645 -0.4306423,3.729361 0.5459168,4.877313 0.7473888,0.878894 1.918715,0.540809 2.819479,1.084439 1.364119,0.823434 1.757224,2.382883 3.52789,2.699034 2.694804,0.481277 3.067762,-2.007199 5.053686,-2.831887 1.785236,-0.741341 5.249707,-0.340277 7.164787,-0.170452 2.653225,0.234685 3.321247,4.072052 6.581082,2.834707 0.986053,-0.374431 5.015178,-3.227937 5.407782,-4.140671 0.706562,-1.643516 0.316151,-4.508898 0.04763,-6.23247 -0.709382,-4.553234 -1.228572,-9.991347 -4.931519,-13.298432 -1.594856,-1.42434 -3.874779,-1.114801 -5.850206,-1.114801 H 15.841682 c -1.712793,0 -4.019005,-0.394922 -5.638739,0.232586 m 23.498614,2.274064 H 9.5750589 c 1.0704651,-1.83233 3.7787741,-1.253325 5.6399611,-1.253325 h 12.846577 c 2.032516,0 4.184224,-0.396458 5.63996,1.253325 m -18.799868,1.253324 v 3.133312 H 9.2617278 v -3.133312 h 5.6399612 m 7.519947,0 v 3.133312 h -6.266623 v -3.133312 h 6.266623 m 8.14661,0 v 3.133312 h -6.893285 v -3.133312 h 6.893285 m 5.639961,3.133312 h -4.386636 v -3.133312 c 2.494742,0.0019 3.603621,0.659625 4.386636,3.133312 M 37.1482,21.370408 H 9.2617278 V 19.490421 H 30.568246 c 2.156345,0 6.355609,-0.999275 6.579954,1.879987 m -22.246511,1.253325 v 3.759974 H 9.2617278 v -3.759974 h 5.6399612 m 7.519947,0 v 3.759974 h -6.266623 v -3.759974 h 6.266623 m 8.14661,0 v 3.759974 h -6.893285 v -3.759974 h 6.893285 m 6.893285,0 0.626662,3.759974 h -6.266622 v -3.759974 h 5.63996 m 0.626662,5.013298 c 0,1.013438 0.476264,3.706457 -0.720348,4.179211 -1.629008,0.643582 -3.074405,-3.042853 -5.232943,-2.788553 -1.888886,0.222527 -2.322379,2.137482 -3.841221,2.807039 -1.805226,0.795548 -6.10814,0.466551 -8.048443,0.142566 -1.843076,-0.307722 -2.377776,-2.710972 -4.403556,-2.949605 -2.316332,-0.27288 -6.5405058,6.068817 -6.5797036,0.49077 L 9.2617278,27.637031 H 38.088193 m -23.181679,2.647366 c 3.081455,-0.770669 4.304575,3.966428 1.243674,4.731896 -3.081455,0.770795 -4.304575,-3.966365 -1.243674,-4.731896 m 16.919757,0 c 3.081611,-0.770669 4.304856,3.966428 1.243924,4.731896 -3.08158,0.770795 -4.3047,-3.966365 -1.243924,-4.731896 z"
     id="path22967" /></svg>
