<?xml version="1.0" encoding="UTF-8" standalone="no"?>
<!-- Created with Inkscape (http://www.inkscape.org/) -->

<svg
   version="1.1"
   id="svg1096"
   width="47.491528"
   height="47.389835"
   viewBox="0 0 47.491528 47.389835"
   sodipodi:docname="365tickets_museum_icon.svg"
   xml:space="preserve"
   inkscape:export-filename="365tickets_bus_tour_icon.svg"
   inkscape:export-xdpi="96"
   inkscape:export-ydpi="96"
   inkscape:version="1.2.2 (b0a8486, 2022-12-01)"
   xmlns:inkscape="http://www.inkscape.org/namespaces/inkscape"
   xmlns:sodipodi="http://sodipodi.sourceforge.net/DTD/sodipodi-0.dtd"
   xmlns="http://www.w3.org/2000/svg"
   xmlns:svg="http://www.w3.org/2000/svg"><sodipodi:namedview
     id="namedview183"
     pagecolor="#ffffff"
     bordercolor="#000000"
     borderopacity="0.25"
     inkscape:showpageshadow="2"
     inkscape:pageopacity="0.0"
     inkscape:pagecheckerboard="0"
     inkscape:deskcolor="#d1d1d1"
     showgrid="false"
     inkscape:zoom="7.0427424"
     inkscape:cx="6.2475663"
     inkscape:cy="27.049122"
     inkscape:window-width="1719"
     inkscape:window-height="919"
     inkscape:window-x="0"
     inkscape:window-y="77"
     inkscape:window-maximized="0"
     inkscape:current-layer="svg1096" /><defs
     id="defs1100" /><path
     style="fill:#6a6a6a;stroke:none;stroke-width:0.311481"
     d="M 21.291504,0.48469742 C 17.04512,1.0927642 12.865829,2.5018494 9.4552416,5.1847719 -8.1110798,19.003359 2.9085115,49.815673 25.963713,46.984314 30.218849,46.46165 34.339737,45.050643 37.799975,42.475633 56.034672,28.906417 44.530759,-2.8430796 21.291504,0.48469742 M 21.602985,1.6863995 C 44.17536,-1.0857933 54.574139,30.054597 35.931092,42.231432 32.933402,44.18971 29.50316,45.303565 25.963713,45.738392 3.389802,48.510569 -7.0130173,17.373817 11.635606,5.193213 14.63342,3.2351277 18.063537,2.1210862 21.602985,1.6863995 M 11.324125,34.925655 c -2.2234417,0.04766 -5.0681628,3.230053 -1.8349943,4.225545 2.0743053,0.638847 4.9686133,0.135183 7.1301643,0.135183 h 14.951068 c 1.814998,0 5.48455,0.695848 7.028871,-0.367236 2.643224,-1.819046 -0.476877,-3.976361 -2.356662,-3.993492 l 0.04579,-11.836263 1.200134,-3.737767 c 2.147036,-0.622836 2.432041,-3.065124 0.604584,-4.371318 -3.526583,-2.520595 -8.969083,-4.901428 -13.063807,-6.33293 -3.023199,-1.0569159 -7.873731,2.500224 -10.59034,3.78343 -1.711679,0.80851 -5.8127261,2.011168 -6.1536727,4.1307 -0.3566765,2.21743 2.4407927,4.059121 2.9412797,6.216405 0.853831,3.680361 0.09759,8.367303 0.09759,12.147743 M 38.111456,18.105703 H 9.4552416 c 0.1194528,-3.648216 7.6889604,-5.489285 10.5903404,-6.929727 1.173565,-0.582624 2.678951,-1.7067886 4.049247,-1.5268774 2.506858,0.3291726 5.480034,2.5097544 7.787015,3.5690384 2.26789,1.041341 6.135233,2.047704 6.229612,4.887566 m -20.557719,1.245922 v 1.245923 h -6.229612 v -1.245923 h 6.229612 m 1.868883,0 1.200011,3.426287 0.04591,12.147743 h -3.114806 l 0.04591,-12.147743 1.20001,-3.426287 h 0.622961 m 7.475534,0 v 1.245923 h -6.229611 v -1.245923 h 6.229611 m 1.868884,0 1.20001,3.426287 0.04591,12.147743 h -3.114806 l 0.04591,-12.147743 1.20001,-3.426287 h 0.622961 m 7.475534,0 v 1.245923 H 30.01296 v -1.245923 h 6.229612 M 16.307815,21.84347 V 34.925655 H 12.570048 V 21.84347 h 3.737767 m 9.344417,0 V 34.925655 H 21.914465 V 21.84347 h 3.737767 m 9.344418,0 V 34.925655 H 31.258883 V 21.84347 h 3.737767 m 3.114806,14.328107 v 1.868884 H 9.4552416 v -1.868884 z"
     id="path68232" /></svg>
